<svg xmlns="http://www.w3.org/2000/svg" xmlns:xlink="http://www.w3.org/1999/xlink" viewBox="0 0 64 64"><defs><style>.cls-1{fill:url(#linear-gradient);}.cls-2{fill:url(#linear-gradient-2);}.cls-3{fill:#e0633d;}.cls-4{fill:#fe9661;}.cls-5{fill:#eb7f58;}.cls-6{fill:url(#linear-gradient-3);}.cls-7{fill:url(#linear-gradient-4);}.cls-8{fill:url(#linear-gradient-5);}.cls-9{fill:url(#linear-gradient-6);}</style><linearGradient id="linear-gradient" x1="32" y1="54" x2="32" y2="10" gradientUnits="userSpaceOnUse"><stop offset="0" stop-color="#54a5ff"/><stop offset="1" stop-color="#8ad3fe"/></linearGradient><linearGradient id="linear-gradient-2" x1="16" y1="46" x2="16" y2="30" gradientUnits="userSpaceOnUse"><stop offset="0" stop-color="#fe9661"/><stop offset="1" stop-color="#ffb369"/></linearGradient><linearGradient id="linear-gradient-3" x1="16" y1="39" x2="48" y2="7" gradientUnits="userSpaceOnUse"><stop offset="0" stop-color="#d3e6f5"/><stop offset="1" stop-color="#f0f7fc"/></linearGradient><linearGradient id="linear-gradient-4" x1="9" y1="17" x2="13" y2="17" xlink:href="#linear-gradient-3"/><linearGradient id="linear-gradient-5" x1="16" y1="17" x2="20" y2="17" xlink:href="#linear-gradient-3"/><linearGradient id="linear-gradient-6" x1="23" y1="17" x2="27" y2="17" xlink:href="#linear-gradient-3"/></defs><title>Credit card</title><g id="Credit_card" data-name="Credit card"><rect class="cls-1" x="1" y="10" width="62" height="44" rx="5"/><rect class="cls-2" x="8" y="30" width="16" height="16" rx="3"/><circle class="cls-3" cx="47.5" cy="41.5" r="4.5"/><circle class="cls-4" cx="51.5" cy="41.5" r="4.5"/><path class="cls-5" d="M14,41v5H12V42H8V40h5A1,1,0,0,1,14,41Z"/><path class="cls-6" d="M1,22H63v2H1Z"/><path class="cls-5" d="M24,34v2H19a1,1,0,0,1-1-1V30h2v4Z"/><path class="cls-7" d="M12,18H10a1,1,0,0,1,0-2h2a1,1,0,0,1,0,2Z"/><path class="cls-8" d="M19,18H17a1,1,0,0,1,0-2h2a1,1,0,0,1,0,2Z"/><path class="cls-9" d="M26,18H24a1,1,0,0,1,0-2h2a1,1,0,0,1,0,2Z"/></g></svg>