<svg xmlns="http://www.w3.org/2000/svg" viewBox="0 0 32 32"><defs><style>.cls-1{fill:#231f20;}</style></defs><g id="home"><path class="cls-1" d="M29.64,12.23,18.18,2.79a3.39,3.39,0,0,0-4.36,0L2.36,12.23a1,1,0,1,0,1.28,1.54L15.09,4.33a1.42,1.42,0,0,1,1.82,0L25,11V26.84A1.16,1.16,0,0,1,23.84,28H8.16A1.16,1.16,0,0,1,7,26.84V15a1,1,0,0,0-2,0V26.84A3.17,3.17,0,0,0,8.16,30H23.84A3.17,3.17,0,0,0,27,26.84V12.65l1.36,1.12a1,1,0,0,0,1.41-.13A1,1,0,0,0,29.64,12.23Z"/><path class="cls-1" d="M11.29,23.71a1,1,0,0,0,1.42,0l8-8a1,1,0,0,0-1.42-1.42l-8,8A1,1,0,0,0,11.29,23.71Z"/><path class="cls-1" d="M12,16a1,1,0,0,0,0-2h0a1,1,0,1,0,0,2Z"/><path class="cls-1" d="M20,22a1,1,0,1,0,1,1,1,1,0,0,0-1-1Z"/></g></svg>