<svg xmlns="http://www.w3.org/2000/svg" viewBox="0 0 24 24"><path d="M22.813,7.338a6.736,6.736,0,0,0-3.8-4.49c-3.206-1.471-6,.878-7.016,1.9-1.013-1.025-3.813-3.374-7.016-1.9a6.736,6.736,0,0,0-3.8,4.49,5.818,5.818,0,0,0,1,4.98c1.708,2.215,9.156,8.891,9.472,9.174a.514.514,0,0,0,.688,0c.316-.283,7.764-6.959,9.472-9.174A5.815,5.815,0,0,0,22.813,7.338ZM21,11.689c-1.448,1.878-7.488,7.362-9,8.726-1.512-1.364-7.552-6.848-9-8.726a4.8,4.8,0,0,1-.812-4.1,5.711,5.711,0,0,1,3.226-3.8C7.643,2.762,10.145,4.1,11.6,5.839a.516.516,0,0,0,.4.188h0a.516.516,0,0,0,.4-.188c.029-.035,2.958-3.536,6.188-2.055a5.714,5.714,0,0,1,3.226,3.8A4.8,4.8,0,0,1,21,11.689Z"/><path d="M6.346,5A4.39,4.39,0,0,0,3.873,7.928,3.818,3.818,0,0,0,4.529,11.2a.515.515,0,0,0,.816-.629,2.8,2.8,0,0,1-.472-2.392,3.366,3.366,0,0,1,1.9-2.237A.515.515,0,0,0,6.346,5Z"/></svg>