<svg xmlns="http://www.w3.org/2000/svg" viewBox="0 0 32 32"><defs><style>.cls-1{fill:#231f20;}</style></defs><g id="shopping_bag" data-name="shopping bag"><path class="cls-1" d="M26.19,10.9A3.21,3.21,0,0,0,23,8H22a6.4,6.4,0,0,0-1.58-3.91,5.78,5.78,0,0,0-8.9,0A6.4,6.4,0,0,0,10,8H9a3.21,3.21,0,0,0-3.2,2.9L4.25,26.46A3.21,3.21,0,0,0,7.45,30h17.1a3.21,3.21,0,0,0,3.2-3.54Zm-.74,16.7a1.18,1.18,0,0,1-.9.4H7.45a1.18,1.18,0,0,1-.9-.4,1.17,1.17,0,0,1-.31-.94L7.8,11.1A1.21,1.21,0,0,1,9,10h2.12s.08,0,.13,0a1,1,0,0,0,.18-.07l.16-.1a.86.86,0,0,0,.14-.13.72.72,0,0,0,.11-.15,1.3,1.3,0,0,0,.08-.17.71.71,0,0,0,0-.2A.5.5,0,0,0,12,9s0,0,0-.06V8.87a4.41,4.41,0,0,1,1.06-3.46A4,4,0,0,1,16,4,4,4,0,0,1,19,5.41,4.41,4.41,0,0,1,20,8H15a1,1,0,0,0,0,2h8a1.21,1.21,0,0,1,1.21,1.1l1.56,15.56A1.17,1.17,0,0,1,25.45,27.6Z"/><path class="cls-1" d="M11,11H10a1,1,0,0,0,0,2h1a1,1,0,0,0,0-2Z"/><path class="cls-1" d="M22,11H21a1,1,0,0,0,0,2h1a1,1,0,0,0,0-2Z"/></g></svg>